<?xml version="1.0" encoding="utf-8"?>
<!-- Generator: Adobe Illustrator 16.0.0, SVG Export Plug-In . SVG Version: 6.00 Build 0)  -->
<!DOCTYPE svg PUBLIC "-//W3C//DTD SVG 1.1//EN" "http://www.w3.org/Graphics/SVG/1.1/DTD/svg11.dtd">
<svg version="1.1" id="Layer_1" xmlns="http://www.w3.org/2000/svg" xmlns:xlink="http://www.w3.org/1999/xlink" x="0px" y="0px"
	 width="100px" height="75px" viewBox="0 0 100 75" enable-background="new 0 0 100 75" xml:space="preserve">
<polygon fill="#FFFFFF" points="13.436,22.328 11.225,22.672 12.648,19.433 0,21.555 0,26.441 12.674,24.04 "/>
<polygon fill="#FFFFFF" points="28.583,13.734 30.521,13.261 32,15.612 29.608,17.264 "/>
<polygon fill="#FFFFFF" points="26.793,18.376 26.555,20.471 28.702,20.484 29.396,18.493 "/>
<polygon fill="#FFFFFF" points="6.416,11.254 5.236,8.046 2.705,8.792 3.28,12.005 "/>
<polygon fill="#FFFFFF" points="26.186,15.639 26.539,14.198 27.959,14.714 27.931,16.198 "/>
<polygon fill="#FFFFFF" points="4.95,13.002 6.511,13.54 6.097,15.115 4.521,14.945 "/>
<polygon fill="#FFFFFF" points="29.203,10.799 28.851,9.358 27.43,9.874 27.459,11.357 "/>
<path fill="#FFFFFF" d="M22.769,2.969l-6.704,11.639l4.123,0.806l-4.554,2.197l6.904,2.688l5.866-15.062L22.769,2.969z
	 M22.291,14.146l-2.542-0.99l0.989-2.542l2.542,0.989L22.291,14.146z M23.932,9.931l-2.542-0.99l0.989-2.542l2.542,0.99
	L23.932,9.931z"/>
<path fill="#FFFFFF" d="M18.675,5.832L20.913,0.8L14.794,0l-1.064,7.936l-2.705-0.354l0.353-2.7l1.72,0.19l0.026-3.256l-3.718-0.49
	L7.198,18.004l0.034,0.005l2.355,0.308l0.613-4.423l2.668,0.355l-0.5,3.764l0.839,0.109l4.311-9.69l-1.866-0.244l0.354-2.706
	L18.675,5.832z M13.143,12.42l-2.706-0.354l0.354-2.706l2.705,0.354L13.143,12.42z"/>
<polygon fill="#FFFFFF" points="14.728,24.024 31.527,28.529 31.527,23.848 15.406,19.493 13.9,21.111 16.167,21.463 "/>
</svg>
