<?xml version="1.0" encoding="utf-8"?>
<!-- Generator: Adobe Illustrator 16.0.0, SVG Export Plug-In . SVG Version: 6.00 Build 0)  -->
<!DOCTYPE svg PUBLIC "-//W3C//DTD SVG 1.1//EN" "http://www.w3.org/Graphics/SVG/1.1/DTD/svg11.dtd">
<svg version="1.1" xmlns="http://www.w3.org/2000/svg" xmlns:xlink="http://www.w3.org/1999/xlink" x="0px" y="0px" width="100px"
	 height="75px" viewBox="0 0 100 75" enable-background="new 0 0 100 75" xml:space="preserve">
<g id="XMLID_1_" display="none">
	<rect x="20.094" y="0.094" display="inline" fill="none" stroke="#000000" stroke-width="0.2835" width="59.812" height="59.812"/>
</g>
<g id="XMLID_2_">
	<path fill="#FFFFFF" d="M31.938,12.865L31.938,12.865c-0.521,0.006-0.927,0-1.25-0.024l-0.396-2.877
		C31.177,9.982,31.938,10,31.938,10l0.011-1.629l-3.875-0.084l-0.084-0.951c0.344-0.279,0.854-0.708,0.969-0.793
		c0.209,0.012,2.979,0.2,2.979,0.2V5.524L29.136,5.33l-0.25-1.593c0.729,0.073,1.447,0.049,1.656,0.037
		c0.125,0.139,1.396,1.333,1.396,1.333V4.094l-0.656-0.527c0.448-0.248,0.636-0.333,0.656-0.363V2.12l-0.927-0.636l-0.792-0.569
		l1.719-0.024l0.011-0.812L0,0v0.817l4.021-0.012L2.198,2.489L2.135,2.38L0,1.417v0.891l1.625,0.715L0.51,4.058L0,3.931v0.806
		l0.427,0.127c0,0,0.771,0.424,1.833,0.703L1.531,6.093L0,6.105v1.193c0,0,1.438,0.018,1.531,0.012C1.604,7.341,3.104,7.929,4,8.286
		C3.74,8.771,3.479,9.267,3.302,9.612c-0.5-0.024-1.688-0.479-2.667-0.951C0.604,8.649,0,8.371,0,8.371v1.272l0.417,0.194
		c0.271,0.133,0.865,0.406,1.479,0.636C0.99,10.806,0,11.206,0,11.206v1.187l3.49-1.248c0.281,0.079,1.021,0.285,1.469,0.412
		c-0.115,0.467-0.292,1.169-0.427,1.696c-1.052-0.024-1.948-0.115-1.969-0.115L0,12.871V14.9l2.469,0.242
		c0.062,0.006,1.562,0.2,3.021,0.146c0.021,0.551,0.062,1.296,0.094,1.896L0,17.759v2.029c0,0,2.927-0.291,4.771-0.479
		c-0.99,1.587-2.177,3.483-2.177,3.483L0,26.379v0.654l0.031,2.52l0.448-0.812l1.854-2.538c0.906,0.103,3.25,0.267,5.021-0.576
		c1.636-0.775,2.958-2.217,3.594-3.041c0.354,0.242,1.208,0.788,2.447,1.32L11.427,32h1.761l1.511-7.608
		c1.188,0.388,2.614,0.696,4.219,0.757L19.239,32h1.459l-0.448-6.869c0.094-0.006,0.177-0.006,0.271-0.012l0.761-0.054
		c1.364-0.097,2.812-0.194,4.344-0.491c0.104,0.151,0.198,0.297,0.281,0.418c1.021,1.526,3.958,5.257,6.031,7.008v-2.774
		c-1.688-1.424-3.489-3.586-4.636-5.052c1.562-0.454,2.979-0.842,4.698-1.987v-2.174c-1.979,1.314-4.156,2.017-5.927,2.423
		c-0.667-0.957-1.511-2.126-2.167-3.017c0.511-0.151,0.854-0.272,0.886-0.285c0,0,3.458-1.423,3.906-1.605
		c0.489,0.381,1.885,1.235,3.302,1.763v-2.241c-1.636-0.606-2.886-1.484-2.906-1.496c0,0-0.792-0.873-1.094-1.357
		c0.438,0.036,2.292,0.321,3.948,0.297l0,0 M5.781,11.69c0.719-0.042,2.688-0.248,4.052-1.235c0.229,0.351,0.5,0.703,0.812,1.023
		c-0.146,0.212-0.281,0.418-0.417,0.594l-0.396,0.242c-0.011,0.006-1.188,0.703-3.667,0.878c-0.25,0.03-0.51,0.048-0.781,0.054
		L5.781,11.69z M6.656,4.682C6.917,4.73,7.51,4.821,8,4.833L7.396,7.02L5.594,6.596C6,5.869,6.552,4.87,6.656,4.682z M3.844,3.004
		c-0.26-0.061-0.604-0.157-0.885-0.26C3.781,1.975,4.573,1.248,4.667,1.15C5.083,1.417,5.51,1.671,6,1.865L4.802,3.319
		C4.427,3.204,4.073,3.089,3.844,3.004z M6.677,2.083c0.51,0.133,1.094,0.2,1.781,0.176L7.865,4.016
		c-0.583-0.03-1.281-0.169-1.292-0.169c-0.01,0-0.021,0.006-0.031,0.006V3.834c-0.01,0-0.489-0.139-1.052-0.309L6.677,2.083z
		 M18.5,0.866l-0.688,0.818l-0.219,0.097c-0.458,0.212-1.521,0.23-1.948,0.224V0.854L18.5,0.866z M27.583,15.882l-2.635,1.084
		l-0.709-1.557l2.334-1.126L27.583,15.882z M13.302,16.275l-0.385-0.254c-0.803-0.715-1.562-1.975-1.969-2.732
		c0.229-0.315,0.447-0.66,0.614-0.927c0.406,0.127,1.198,0.333,2.396,0.424c0.344,0.024,0.646,0.036,0.938,0.03
		c0.198,0.381,0.542,0.938,1.094,1.399c0.438,0.352,1.011,0.63,1.479,0.818c-0.198,0.594-0.448,1.472-0.761,2.762
		C14.761,17.214,13.323,16.288,13.302,16.275z M11.104,6.257l-0.042,0.024c-0.281-0.503-0.479-1.181-0.604-1.86
		c0.375-0.091,0.781-0.212,1.187-0.375c0.531,0.279,1.584,0.521,2.209,0.654c-0.323,0.551-0.948,1.642-1.271,2.211
		c-0.719-0.279-1.333-0.588-1.344-0.594L11.104,6.257z M8.5,3.913C8.698,3.319,8.948,2.586,9.021,2.38
		c0.146-0.006,0.375-0.03,0.656-0.079c0.01,0.352,0.052,0.866,0.125,1.442C9.25,3.852,8.792,3.895,8.5,3.913z M10.198,2.192
		c0.594-0.139,1.271-0.388,1.833-0.812l1.073,0.86c-0.479,0.345-1.198,0.848-1.521,0.994c-0.427,0.169-0.854,0.303-1.25,0.4
		C10.25,3.053,10.219,2.532,10.198,2.192z M15.594,2.816c0.052,0,0.948,0.03,1.646-0.103c-0.031,0.146-0.062,0.297-0.083,0.46
		l-0.114,0.648l-0.375,0.085c-0.854,0.2-1.031,0.242-2.261,0.079c-0.042-0.012-1.083-0.194-1.896-0.436
		c0.51-0.339,1.062-0.733,1.239-0.866C13.875,2.695,15.594,2.816,15.594,2.816z M20.636,3.077l0.344,1.327l-1.428,0.169
		c-0.583-0.115-1.521-0.363-1.979-0.618l0.104-0.6c0.042-0.297,0.073-0.527,0.136-0.721C18.562,3.113,19.854,3.149,20.636,3.077z
		 M21.198,3.053c0.708-0.067,2.052-0.297,2.614-1.078c0.198,0.103,0.812,0.43,1.271,0.678c-0.26,0.285-0.604,0.63-1,0.902
		c-0.521,0.364-1.594,0.654-1.708,0.685l-0.844,0.097C21.448,4.003,21.302,3.446,21.198,3.053z M22.292,10.479l-3.198-0.315
		l0.136-0.848c0.604,0.012,1.947-0.042,3.438-0.63c0.302,0.357,0.75,0.957,1.146,1.521L22.292,10.479z M16.739,4.712
		c0,0,0.365-0.085,0.479-0.109c0.438,0.321,1.323,0.563,1.864,0.691c-0.208,0.454-0.552,1.235-0.76,1.702l-0.146,0.042
		c-0.01,0.006-0.76,0.224-1.729,0.339l0.177-2.641C16.667,4.73,16.708,4.73,16.739,4.712z M19.688,5.373
		c0.136-0.018,0.364-0.042,0.625-0.073l1.219,2.52c-1.136,0.297-2.083,0.291-2.438,0.273l-0.364-0.576L19.688,5.373z M22.844,7.371
		l-0.011-0.012l-0.188,0.079c-0.177,0.079-0.354,0.146-0.531,0.206l-1.177-2.417c0.698-0.085,1.396-0.169,1.448-0.176
		c0.062,0.037,1.364,0.606,2.083,0.921C23.989,6.39,23.219,7.05,22.844,7.371z M14.5,4.821c0.802,0.097,1.167,0.103,1.583,0.03
		l-0.177,2.586c-0.386,0.018-0.781,0.018-1.177-0.012l0.01-0.024l-0.572-0.048c-0.281-0.024-0.636-0.115-0.99-0.23L14.5,4.821z
		 M14.333,8.607c1.542,0.224,3.198-0.157,3.781-0.309c0.125,0.2,0.229,0.376,0.365,0.576c-0.062,0.381-0.188,1.199-0.219,1.369
		l-1.417,0.545c-0.927,0.37-1.625,0.46-2.833,0.375c-0.417-0.03-0.771-0.079-1.084-0.127C13.75,9.649,14.146,8.958,14.333,8.607z
		 M18.396,13.677l-0.031,0.006c-0.344-0.103-1.302-0.437-1.864-0.903c-0.062-0.048-0.114-0.103-0.167-0.151
		c0.25-0.073,0.511-0.157,0.781-0.267c0,0,1.25-0.484,1.584-0.605c0.094,0.006,1.416,0.139,2.427,0.236l-1.333,2.114
		c-0.771-0.139-1.24-0.357-1.25-0.363L18.396,13.677z M22.552,12.072c0.292-0.048,1.771-0.321,2.125-0.382
		c0.167,0.224,0.521,0.697,0.99,1.321c-0.854,0.412-2.084,1.005-2.323,1.126l-2.136,0.066
		C21.771,13.313,22.427,12.278,22.552,12.072z M24.552,9.576c-0.396-0.557-0.864-1.211-1.239-1.672l1.521-1.308
		c0.011,0.006,1.979,0.933,2.386,1.121c0.011,0.194,0.042,0.442,0.052,0.636L24.552,9.576z M25.948,5.839
		c0.791-0.569,2.104-1.526,2.447-1.769c0.053,0.357,0.146,0.933,0.209,1.369l-1.271,1.054L25.948,5.839z M25.229,5.457L23.5,4.7
		c0.292-0.115,0.583-0.254,0.802-0.406c0.562-0.388,1.094-0.939,1.386-1.351c0.427,0.151,1.271,0.437,2.156,0.624L25.229,5.457z
		 M25.698,2.107l-1.636-0.86l0.031-0.363l2.396,0.018l0.136,1.514C26.219,2.295,25.886,2.18,25.698,2.107z M23.521,1.308
		c-0.208,0.406-0.927,0.678-1.677,0.83l-0.656-1.266l2.364,0.012L23.521,1.308z M21.219,2.235c-0.125,0.012-0.25,0.018-0.364,0.024
		V2.241c-0.104,0.012-0.209,0.024-0.323,0.03l-0.104,0.006l0,0c-0.635,0.036-1.469,0-2.062-0.218c0.334-0.4,0.812-0.969,1-1.193
		l1.146,0.006L21.219,2.235z M15.114,1.968l-1.322-0.097L12.5,0.835l2.614,0.012V1.968z M10.115,1.387L9.917,1.393L8.844,1.429
		V1.423C8.76,1.429,8.698,1.429,8.625,1.441l0.104-0.618l2.792,0.012C11.083,1.102,10.573,1.278,10.115,1.387z M8.604,4.73
		C8.927,4.7,9.385,4.652,9.927,4.542c0.125,0.703,0.323,1.43,0.604,2.029L9.01,7.396L7.938,7.141L8.604,4.73z M11.114,7.547
		c0.354,0.17,1.375,0.63,2.271,0.878c-0.354,0.618-0.886,1.514-1.417,2.398c-0.281-0.079-0.438-0.139-0.448-0.139l-0.312-0.121
		l-0.01,0.018C10.49,9.879,9.969,8.94,9.677,8.328C10.198,8.05,10.969,7.632,11.114,7.547z M6.948,17.608
		c-0.052-0.872-0.104-1.866-0.125-2.435c1.49-0.157,2.479-0.497,3.021-0.733c0.417,0.775,1.219,2.15,2.146,3.089l-1.542,2.834
		C9.458,19.837,7.885,18.474,6.948,17.608z M13.239,18.426c0.959,0.551,3.312,1.726,5.959,1.841c-0.011,0.37-0.021,0.715-0.021,1.03
		c0,0.739,0.031,1.338,0.073,1.817c-3.583-0.054-6.312-1.49-7.396-2.156C12.333,20.091,12.969,18.922,13.239,18.426z M19.906,18.256
		L19.906,18.256c-0.729,0.024-1.448-0.054-2.125-0.194c0.396-1.593,0.636-2.32,0.761-2.635c0.447,0.158,1.322,0.418,2.458,0.412
		c0,0,1.646-0.055,2.104-0.073c0.146,0.303,0.469,1.023,0.729,1.599c-0.938,0.291-2.719,0.793-3.927,0.836V18.256z M29.583,12.684
		c-0.489-0.037-1.697-0.121-2.697-0.2l-1.261-1.696c0.812-0.363,1.886-0.848,1.979-0.884c0.062,0,0.771,0.018,1.594,0.036
		C29.281,10.521,29.458,11.817,29.583,12.684z M30.792,2.223l0.594,0.388c-0.209,0.169-0.469,0.327-0.698,0.327v0.018h-0.073
		c-0.01,0.006-1,0.055-1.854-0.048l0,0H28.75c-0.021,0-0.042,0-0.073-0.012c-0.489-0.066-1.021-0.182-1.5-0.315l-0.146-1.678
		l1.927,0.006L30.792,2.223z M8.177,0.824l-0.104,0.63C7.021,1.447,6.25,1.181,5.552,0.812L8.177,0.824z M2.302,3.343
		c0.26,0.103,0.969,0.357,1.438,0.46C4.26,3.998,5.427,4.343,6.042,4.519L5.656,5.233L5.375,5.221
		C3.917,5.148,3.833,5.142,2.406,4.779C1.917,4.652,1.5,4.506,1.177,4.385C1.427,4.161,1.844,3.773,2.302,3.343z M2.375,6.384
		l0.802-0.587c0.698,0.158,1.042,0.182,2.042,0.236l-0.24,0.424L4.958,6.451L4.812,6.723c0,0-0.104,0.206-0.271,0.515L2.375,6.384z
		 M4.083,10.067c0.458-0.878,1.062-2.023,1.208-2.302C5.677,7.856,8.5,8.51,8.812,8.589c0.094,0.2,0.24,0.533,0.448,0.915
		c-1.396,0.866-3.417,0.963-3.719,0.975L4.083,10.067z M6.958,23.683c-1.062,0.509-2.427,0.588-3.438,0.558l0.031-0.049l3.104-4.949
		c0.76,0.697,1.948,1.727,2.948,2.362C8.99,22.29,8.052,23.168,6.958,23.683z M21.219,23.029l-0.625,0.042
		c-0.062-0.581-0.114-1.538-0.062-2.883c0.552-0.067,1.146-0.176,1.719-0.315c0.386,0.527,1.25,1.714,2.083,2.871
		C23.271,22.89,22.239,22.957,21.219,23.029z"/>
</g>
</svg>
