<?xml version="1.0" encoding="utf-8"?>
<!-- Generator: Adobe Illustrator 16.0.0, SVG Export Plug-In . SVG Version: 6.00 Build 0)  -->
<!DOCTYPE svg PUBLIC "-//W3C//DTD SVG 1.1//EN" "http://www.w3.org/Graphics/SVG/1.1/DTD/svg11.dtd">
<svg version="1.1" id="Layer_1" xmlns="http://www.w3.org/2000/svg" xmlns:xlink="http://www.w3.org/1999/xlink" x="0px" y="0px"
	 width="100px" height="75px" viewBox="0 0 100 75" enable-background="new 0 0 100 75" xml:space="preserve">
<g>
	<path fill="#FFFFFF" d="M0.393,18.255c0.406,0.116,0.807,0.271,1.23,0.434c0.879,0.339,1.788,0.689,2.782,0.689
		c0.782,0,1.409-0.303,2.08-0.596c0.356-0.155,0.616-0.304,0.972-0.4v0.195c0,0.808,0.796,1.496,1.604,1.496h13.754
		c0.809,0,1.407-0.688,1.407-1.496v-0.229c0.357,0.092,0.797,0.259,1.198,0.433c0.671,0.293,1.38,0.596,2.163,0.596
		c0.992,0,1.909-0.35,2.789-0.689c0.424-0.163,0.828-0.318,1.234-0.434c0.284-0.081,0.451-0.377,0.369-0.662
		c-0.08-0.284-0.375-0.449-0.66-0.368c-0.452,0.129-0.894,0.299-1.321,0.464c-0.824,0.317-1.603,0.617-2.396,0.617
		c-0.559,0-1.153-0.246-1.75-0.506c-0.509-0.222-0.912-0.449-1.626-0.546V9.371h1.961c0.279,0,0.517-0.203,0.61-0.467
		c0.094-0.263,0.081-0.561-0.135-0.737l-3.15-2.647V1.084c0-0.198-0.292-0.275-0.491-0.275h-2.859c-0.199,0-0.217,0.077-0.217,0.275
		v1.507l-2.699-2.148c-0.724-0.591-1.774-0.591-2.498,0L9.925,4.368l-4.633,3.78C5.076,8.325,4.993,8.641,5.087,8.904
		s0.327,0.467,0.606,0.467h1.764v7.91c-0.356,0.107-0.93,0.315-1.4,0.52c-0.597,0.261-1.126,0.507-1.685,0.507
		c-0.794,0-1.556-0.3-2.38-0.618c-0.427-0.165-0.861-0.335-1.313-0.464c-0.284-0.08-0.576,0.083-0.657,0.368
		S0.109,18.174,0.393,18.255z"/>
	<path fill="#FFFFFF" d="M31.318,20.832c-0.453,0.129-0.896,0.299-1.324,0.464c-0.823,0.317-1.602,0.616-2.396,0.616
		c-0.558,0-1.122-0.245-1.719-0.506c-0.671-0.292-1.364-0.596-2.146-0.596s-1.476,0.303-2.146,0.596
		c-0.597,0.26-1.161,0.506-1.72,0.506s-1.121-0.245-1.718-0.506c-0.672-0.292-1.365-0.596-2.147-0.596s-1.476,0.303-2.147,0.596
		c-0.597,0.26-1.16,0.506-1.719,0.506c-0.558,0-1.122-0.245-1.719-0.506c-0.671-0.292-1.364-0.596-2.146-0.596
		c-0.782,0-1.476,0.303-2.147,0.596c-0.597,0.26-1.16,0.506-1.719,0.506c-0.794,0-1.572-0.299-2.396-0.616
		c-0.428-0.165-0.871-0.335-1.324-0.464c-0.284-0.08-0.58,0.083-0.661,0.368s0.083,0.581,0.368,0.661
		c0.407,0.116,0.807,0.271,1.232,0.435c0.878,0.338,1.787,0.688,2.78,0.688c0.782,0,1.476-0.304,2.147-0.596
		c0.597-0.261,1.16-0.507,1.719-0.507c0.558,0,1.122,0.246,1.718,0.507c0.671,0.292,1.365,0.596,2.147,0.596
		c0.782,0,1.476-0.304,2.147-0.596c0.597-0.261,1.16-0.507,1.719-0.507s1.122,0.246,1.719,0.507
		c0.671,0.292,1.364,0.596,2.146,0.596c0.783,0,1.477-0.304,2.147-0.596c0.597-0.261,1.16-0.507,1.719-0.507
		s1.122,0.246,1.719,0.507c0.671,0.292,1.364,0.596,2.146,0.596c0.993,0,1.901-0.35,2.78-0.688c0.424-0.164,0.825-0.318,1.231-0.435
		c0.285-0.08,0.449-0.376,0.368-0.661C31.898,20.916,31.602,20.752,31.318,20.832z"/>
	<path fill="#FFFFFF" d="M31.318,24.437c-0.453,0.13-0.896,0.3-1.323,0.465c-0.824,0.318-1.602,0.618-2.396,0.618
		c-0.558,0-1.122-0.247-1.718-0.507c-0.672-0.294-1.365-0.596-2.147-0.596s-1.477,0.302-2.146,0.596
		c-0.597,0.26-1.161,0.507-1.72,0.507s-1.121-0.247-1.718-0.507c-0.672-0.294-1.365-0.596-2.147-0.596s-1.476,0.302-2.147,0.596
		c-0.597,0.26-1.16,0.507-1.719,0.507c-0.558,0-1.122-0.247-1.719-0.507c-0.671-0.294-1.364-0.596-2.146-0.596
		c-0.782,0-1.476,0.302-2.147,0.596c-0.597,0.26-1.16,0.507-1.719,0.507c-0.794,0-1.572-0.301-2.396-0.618
		c-0.428-0.165-0.87-0.335-1.322-0.465c-0.284-0.08-0.581,0.085-0.662,0.368c-0.081,0.284,0.084,0.58,0.368,0.661
		c0.406,0.116,0.807,0.271,1.231,0.435c0.879,0.339,1.788,0.689,2.781,0.689c0.782,0,1.476-0.303,2.147-0.597
		c0.597-0.26,1.16-0.506,1.719-0.506c0.558,0,1.122,0.245,1.718,0.506c0.671,0.294,1.365,0.597,2.147,0.597
		c0.782,0,1.476-0.303,2.147-0.597c0.596-0.26,1.16-0.506,1.718-0.506c0.558,0,1.122,0.245,1.718,0.506
		c0.672,0.293,1.365,0.597,2.147,0.597s1.477-0.303,2.147-0.597c0.597-0.26,1.16-0.506,1.719-0.506c0.558,0,1.122,0.245,1.718,0.506
		c0.672,0.294,1.365,0.597,2.147,0.597c0.993,0,1.901-0.351,2.78-0.689c0.425-0.163,0.825-0.318,1.231-0.435
		c0.285-0.08,0.45-0.376,0.368-0.661C31.898,24.522,31.602,24.358,31.318,24.437z"/>
</g>
</svg>
