<?xml version="1.0" encoding="utf-8"?>
<!-- Generator: Adobe Illustrator 16.0.0, SVG Export Plug-In . SVG Version: 6.00 Build 0)  -->
<!DOCTYPE svg PUBLIC "-//W3C//DTD SVG 1.1//EN" "http://www.w3.org/Graphics/SVG/1.1/DTD/svg11.dtd">
<svg version="1.1" id="Layer_1" xmlns="http://www.w3.org/2000/svg" xmlns:xlink="http://www.w3.org/1999/xlink" x="0px" y="0px"
	 width="100px" height="75px" viewBox="0 0 100 75" enable-background="new 0 0 100 75" xml:space="preserve">
<path fill="#FFFFFF" d="M14.688,12.301c0.196,0.572,0.65,0.649,0,0.865l-1.73,0.864l-1.731-1.729
	c-0.228-0.676,0.054-1.111,0.866-1.731l1.731,0.865C14.035,11.7,14.62,12.1,14.688,12.301z"/>
<path fill="#FFFFFF" d="M12.958,5.375c-0.522-0.254-1.147-0.194-1.731,0c-0.304,0.102-0.51,0.559-0.866,0.867v2.597l2.597-0.867
	c0.713-0.811,1.034-1.224,0.866-1.731C13.688,5.838,13.483,5.639,12.958,5.375z"/>
<path fill="#FFFFFF" d="M20.076,8.863L19.88,8.839c-0.099,0.033-0.84-0.588-1.729-0.867c-0.428-0.147-0.434,0.169-0.866,0
	c-0.614,0.208-0.717,0.721-0.866,1.731c-0.149,1.014-0.34,2.444,0,3.462c0.09,0.275,0.524,0.521,0.866,0.864l0.866,0.867h0.863
	c1.128-0.492,1.56-1.672,1.732-1.731c0.405-0.243,0.723-0.966,0.866-1.731c0.137-0.769,0.236-1.016,0-1.731
	C21.341,8.893,20.621,8.683,20.076,8.863z"/>
<path fill="#FFFFFF" d="M19.88,16.627v1.731c0.436,0.383,0.887,0.739,1.732,0.866l1.729-0.866l-0.864-2.598L19.88,16.627z"/>
<path fill="#FFFFFF" d="M30.266,16.627c-1.154-1.279-1.769-1.433-3.462-0.866h-0.864c-0.804,0.709-1.174,1.259-1.73,2.598
	c-0.544,1.276-1.11,2.728-0.867,3.461c0.022,0.06,0.708,0.813,1.732,1.731c1.081,0.891,1.597,1.433,1.729,1.73l3.462-0.866
	c0.372-0.122,1.819-3.202,1.73-3.461C31.302,18.87,30.974,17.426,30.266,16.627z"/>
<path fill="#FFFFFF" d="M27.698,33.242c-0.009-0.057-0.058-0.171-0.027-0.171c-0.649-0.923-3.426-3.11-3.462-3.462
	c-0.041-0.375-0.814-1.72-1.731-2.596c-0.393-0.621-0.429-1.097-0.864-1.73c-0.435-0.63-1.246-1.925-1.732-2.599l-3.264-2.049
	c-0.474-0.255-3.2-0.164-6.996-4.177L9.496,14.03c-0.512-0.623-1.571-2.112-1.731-2.595c-1-2.983-0.336-5.418-0.866-9.52
	l-1.926-1.29L2.671,0.185C1.847,0,0,0,0,0v33.289h3.438h24.271h0.065L27.698,33.242z"/>
</svg>
