<?xml version="1.0" encoding="utf-8"?>
<!-- Generator: Adobe Illustrator 16.0.0, SVG Export Plug-In . SVG Version: 6.00 Build 0)  -->
<!DOCTYPE svg PUBLIC "-//W3C//DTD SVG 1.1//EN" "http://www.w3.org/Graphics/SVG/1.1/DTD/svg11.dtd">
<svg version="1.1" id="Layer_1" xmlns="http://www.w3.org/2000/svg" xmlns:xlink="http://www.w3.org/1999/xlink" x="0px" y="0px"
	 width="100px" height="75px" viewBox="0 0 100 75" enable-background="new 0 0 100 75" xml:space="preserve">
<path fill="#FFFFFF" d="M16.734,31.505c0.096-3.205,0.206-5.752,0.327-6.49c0.41-2.488,1.448-3.935,1.764-6.987
	c0.313-3.053,0.881-3.682,1.729-5.381c0.851-1.7,3.336-3.367,3.367-4.594c0.012-0.472-0.755-0.85-1.731,0
	c-0.975,0.849-4.311,4.877-4.782,4.279c-0.473-0.597,0.88-3.493,1.542-6.01c0.661-2.519,1.07-4.28,0.062-4.532
	c-1.008-0.252-1.604,1.542-2.644,5.475c-1.038,3.934-1.196,3.934-1.73,3.587c-0.535-0.346-0.007-6.02-0.007-6.02
	c0.078-2.293,0.395-4.983-0.869-4.825c-1.267,0.159-1.662,3.243-1.662,4.983c0,1.741,0.126,5.424-0.428,5.424
	s-0.996-0.916-1.392-4.792C9.886,1.748,9.491,1.744,9.096,1.748C8.492,1.753,7.83,2.38,7.83,4.595c0,2.214,0.87,6.012,0.949,8.463
	c0.08,2.452-0.791,3.718-1.898,3.876c-1.108,0.158-2.532-1.82-4.509-2.611C0.395,13.533,0,15.906,0,15.906s1.502,0.316,2.452,1.108
	c0.95,0.79,1.977,2.926,1.977,2.926c1.029,0.949,4.984,4.192,4.984,4.192s0.158,3.561-0.08,6.564
	c-0.024,0.303-0.066,0.664-0.118,1.055C12.119,31.941,14.411,32.304,16.734,31.505z"/>
</svg>
