<?xml version="1.0" encoding="utf-8"?>
<!-- Generator: Adobe Illustrator 16.0.0, SVG Export Plug-In . SVG Version: 6.00 Build 0)  -->
<!DOCTYPE svg PUBLIC "-//W3C//DTD SVG 1.1//EN" "http://www.w3.org/Graphics/SVG/1.1/DTD/svg11.dtd">
<svg version="1.1" id="Layer_1" xmlns="http://www.w3.org/2000/svg" xmlns:xlink="http://www.w3.org/1999/xlink" x="0px" y="0px"
	 width="100px" height="75px" viewBox="0 0 100 75" enable-background="new 0 0 100 75" xml:space="preserve">
<path fill="#FFFFFF" d="M31.42,25.5c0.771,0.777,0.771,2.043,0,2.824c-0.776,0.777-2.031,0.777-2.805,0l-2.103-2.117
	c0,0-3.122,3.141-3.505,3.531c-0.384,0.384-1.052,0.354-1.402,0c-0.349-0.354-3.506-3.531-3.506-3.531l-3.5,3.531
	c-0.387,0.388-1.016,0.388-1.402,0l-3.506-3.531c0,0-3.122,3.141-3.504,3.531c-0.383,0.384-1.051,0.354-1.398,0
	c-0.277-0.281-2.908-2.93-4.209-4.238c-0.773-0.781-0.773-2.044,0-2.825c0.773-0.777,2.033-0.777,2.806,0l2.102,2.118l3.504-3.528
	c0.387-0.392,1.012-0.392,1.403,0l3.5,3.528l3.504-3.528c0.387-0.392,1.017-0.392,1.402,0l3.506,3.528l3.504-3.528
	c0.388-0.392,1.013-0.392,1.399,0C27.213,21.264,29.963,24.035,31.42,25.5z M27.213,10.78c-0.388-0.391-1.013-0.391-1.399,0
	l-3.504,3.529l-3.506-3.529c-0.387-0.391-1.017-0.391-1.402,0l-3.504,3.529l-3.5-3.529c-0.391-0.391-1.016-0.391-1.403,0
	L5.49,14.309l-2.103-2.118c-0.773-0.777-2.032-0.777-2.805,0c-0.773,0.781-0.773,2.043,0,2.825c1.301,1.312,3.931,3.962,4.208,4.24
	c0.348,0.352,1.016,0.387,1.398,0c0.382-0.388,3.504-3.533,3.504-3.533l3.505,3.533c0.387,0.391,1.016,0.391,1.402,0l3.5-3.533
	c0,0,3.157,3.177,3.506,3.533c0.352,0.352,1.02,0.387,1.402,0c0.382-0.388,3.505-3.533,3.505-3.533l2.103,2.117
	c0.772,0.782,2.027,0.782,2.805,0c0.771-0.777,0.771-2.043,0-2.824C29.963,13.551,27.213,10.78,27.213,10.78z M4.789,8.764
	c0.348,0.355,1.016,0.387,1.398,0C6.57,8.381,9.692,5.236,9.692,5.236l3.506,3.528c0.387,0.391,1.016,0.391,1.402,0l3.5-3.528
	c0,0,3.157,3.177,3.506,3.528c0.352,0.355,1.02,0.387,1.402,0c0.383-0.383,3.505-3.528,3.505-3.528l2.103,2.118
	c0.772,0.777,2.027,0.777,2.805,0c0.771-0.777,0.771-2.043,0-2.825c-1.457-1.465-4.207-4.236-4.207-4.236
	c-0.388-0.391-1.013-0.391-1.399,0L22.31,3.826l-3.506-3.533c-0.387-0.391-1.017-0.391-1.402,0l-3.505,3.533l-3.5-3.533
	c-0.391-0.391-1.016-0.391-1.403,0L5.487,3.826L3.385,1.704c-0.773-0.777-2.032-0.777-2.806,0c-0.773,0.782-0.773,2.047,0,2.825
	C1.881,5.838,4.511,8.491,4.789,8.764z"/>
</svg>
