<?xml version="1.0" encoding="utf-8"?>
<!-- Generator: Adobe Illustrator 16.0.0, SVG Export Plug-In . SVG Version: 6.00 Build 0)  -->
<!DOCTYPE svg PUBLIC "-//W3C//DTD SVG 1.1//EN" "http://www.w3.org/Graphics/SVG/1.1/DTD/svg11.dtd">
<svg version="1.1" id="Layer_1" xmlns="http://www.w3.org/2000/svg" xmlns:xlink="http://www.w3.org/1999/xlink" x="0px" y="0px"
	 width="100px" height="75px" viewBox="0 0 100 75" enable-background="new 0 0 100 75" xml:space="preserve">
<path fill="#FFFFFF" d="M6.736,20.799L6.5,18.529l-1.643,1.589c-0.153,0.126-0.276,0.293-0.349,0.494
	C4.29,21.213,4.6,21.878,5.201,22.098c0.602,0.219,1.267-0.091,1.485-0.693C6.759,21.204,6.772,20.996,6.736,20.799z"/>
<path fill="#FFFFFF" d="M20.397,20.799l-0.236-2.271l-1.643,1.589c-0.153,0.126-0.276,0.293-0.349,0.494
	c-0.219,0.601,0.092,1.266,0.692,1.485c0.602,0.219,1.267-0.091,1.485-0.693C20.42,21.204,20.433,20.996,20.397,20.799z"/>
<path fill="#FFFFFF" d="M17.84,28.927l-0.234-2.271l-1.644,1.59c-0.153,0.126-0.276,0.293-0.35,0.493
	c-0.218,0.601,0.093,1.267,0.693,1.485c0.602,0.219,1.267-0.091,1.485-0.692C17.865,29.332,17.877,29.124,17.84,28.927z"/>
<path fill="#FFFFFF" d="M22.878,26.136l-0.236-2.271l-1.644,1.589c-0.152,0.127-0.275,0.295-0.348,0.494
	c-0.22,0.601,0.091,1.267,0.692,1.485c0.601,0.219,1.267-0.091,1.485-0.692C22.901,26.541,22.915,26.333,22.878,26.136z"/>
<path fill="#FFFFFF" d="M7.895,28.072l-0.236-2.271L6.015,27.39c-0.152,0.126-0.276,0.293-0.348,0.494
	c-0.219,0.601,0.091,1.267,0.693,1.484c0.601,0.22,1.267-0.09,1.485-0.691C7.917,28.476,7.93,28.267,7.895,28.072z"/>
<polygon fill="#FFFFFF" points="14.488,18.61 11.308,18.61 8.227,24.45 12.478,24.89 11.038,32 16.702,22.234 13.209,21.794 "/>
<path fill="#FFFFFF" d="M22.511,9.98c-0.074,0-0.149,0.003-0.225,0.007l-0.802,0.046l0.31-0.742
	c0.063-0.151,0.111-0.307,0.153-0.464c0.012-0.045,0.025-0.092,0.035-0.139c0.011-0.051,0.021-0.103,0.029-0.155
	c0.011-0.06,0.021-0.12,0.028-0.181c0.005-0.041,0.011-0.082,0.014-0.123c0.009-0.104,0.016-0.21,0.016-0.315
	c0-2.059-1.756-3.733-3.914-3.733c-0.678,0-1.346,0.168-1.933,0.487l-0.229,0.125l-0.33,0.179l-0.166-0.614
	C14.801,1.792,12.465,0,9.818,0C6.57,0,3.929,2.657,3.929,5.923c0,0.607,0.091,1.208,0.272,1.783L4.37,8.249L3.812,8.351
	C1.604,8.756,0,10.614,0,12.768c0,2.481,2.11,4.5,4.703,4.5H22.51c2.081,0,3.774-1.635,3.774-3.644
	C26.287,11.615,24.593,9.98,22.511,9.98z"/>
</svg>
