<?xml version="1.0" encoding="utf-8"?>
<!-- Generator: Adobe Illustrator 16.0.0, SVG Export Plug-In . SVG Version: 6.00 Build 0)  -->
<!DOCTYPE svg PUBLIC "-//W3C//DTD SVG 1.1//EN" "http://www.w3.org/Graphics/SVG/1.1/DTD/svg11.dtd">
<svg version="1.1" id="Layer_1" xmlns="http://www.w3.org/2000/svg" xmlns:xlink="http://www.w3.org/1999/xlink" x="0px" y="0px"
	 width="100px" height="75px" viewBox="0 0 100 75" enable-background="new 0 0 100 75" xml:space="preserve">
<path fill="#FFFFFF" d="M24.946,17.65H3.61C1.62,17.65,0,16.03,0,14.039c0-1.689,1.166-3.111,2.734-3.502
	c0.701-1.75,2.319-3.003,4.208-3.229C7.141,3.245,10.509,0,14.622,0c3.013,0,5.704,1.771,6.951,4.402
	c1.025-0.561,2.181-0.859,3.374-0.859c3.89,0,7.054,3.164,7.054,7.054C32,14.485,28.836,17.65,24.946,17.65L24.946,17.65z
	 M3.587,12.918c-0.607,0.013-1.098,0.511-1.098,1.12c0,0.618,0.502,1.121,1.121,1.121h21.336c2.517,0,4.563-2.047,4.563-4.563
	s-2.047-4.563-4.563-4.563c-1.179,0-2.297,0.45-3.15,1.264l-1.631,1.559l-0.45-2.21c-0.488-2.408-2.631-4.156-5.093-4.156
	c-2.867,0-5.199,2.332-5.199,5.198c0,0.233,0.017,0.474,0.05,0.72l0.233,1.69L8.024,9.803C7.866,9.775,7.707,9.761,7.553,9.761
	c-1.28,0-2.394,0.909-2.645,2.162L4.7,12.957l-1.053-0.034C3.627,12.921,3.607,12.92,3.587,12.918L3.587,12.918z"/>
<path fill="#FFFFFF" d="M8.91,23.035c-0.405,0-0.808,0-1.21,0c0.201-0.349,0.403-0.697,0.602-1.045
	c0.455-0.786-0.76-1.492-1.212-0.709c-0.202,0.35-0.405,0.7-0.606,1.051c-0.202-0.351-0.405-0.701-0.607-1.051
	c-0.452-0.783-1.667-0.077-1.213,0.709c0.202,0.348,0.401,0.696,0.603,1.045c-0.403,0-0.806,0-1.211,0c-0.905,0-0.905,1.404,0,1.404
	c0.405,0,0.808,0,1.211,0c-0.2,0.348-0.401,0.696-0.603,1.045c-0.454,0.785,0.761,1.493,1.213,0.709
	c0.202-0.35,0.405-0.7,0.607-1.051c0.202,0.351,0.405,0.701,0.606,1.051c0.452,0.784,1.667,0.076,1.212-0.709
	C8.1,25.136,7.9,24.787,7.699,24.439c0.403,0,0.806,0,1.21,0C9.814,24.439,9.814,23.035,8.91,23.035z"/>
<path fill="#FFFFFF" d="M18.426,23.035c-0.403,0-0.807,0-1.209,0c0.201-0.349,0.401-0.697,0.603-1.045
	c0.454-0.786-0.761-1.492-1.213-0.709c-0.201,0.35-0.405,0.7-0.606,1.051c-0.202-0.351-0.405-0.701-0.606-1.051
	c-0.454-0.783-1.667-0.077-1.213,0.709c0.2,0.348,0.401,0.696,0.603,1.045c-0.403,0-0.808,0-1.211,0c-0.904,0-0.904,1.404,0,1.404
	c0.403,0,0.808,0,1.211,0c-0.202,0.348-0.401,0.696-0.603,1.045c-0.454,0.785,0.759,1.493,1.213,0.709
	c0.201-0.35,0.405-0.7,0.606-1.051c0.202,0.351,0.405,0.701,0.606,1.051c0.452,0.784,1.667,0.076,1.213-0.709
	c-0.201-0.349-0.402-0.697-0.603-1.045c0.402,0,0.806,0,1.209,0C19.332,24.439,19.332,23.035,18.426,23.035z"/>
<path fill="#FFFFFF" d="M27.943,23.035c-0.403,0-0.807,0-1.209,0c0.201-0.349,0.401-0.697,0.604-1.045
	c0.453-0.786-0.762-1.492-1.214-0.709c-0.201,0.35-0.404,0.7-0.606,1.051c-0.201-0.351-0.404-0.701-0.606-1.051
	c-0.454-0.783-1.667-0.077-1.213,0.709c0.2,0.348,0.401,0.696,0.603,1.045c-0.402,0-0.808,0-1.21,0c-0.905,0-0.905,1.404,0,1.404
	c0.402,0,0.808,0,1.21,0c-0.201,0.348-0.401,0.696-0.603,1.045c-0.454,0.785,0.759,1.493,1.213,0.709
	c0.202-0.35,0.405-0.7,0.606-1.051c0.202,0.351,0.405,0.701,0.606,1.051c0.452,0.784,1.667,0.076,1.214-0.709
	c-0.202-0.349-0.403-0.697-0.604-1.045c0.403,0,0.806,0,1.209,0C28.85,24.439,28.85,23.035,27.943,23.035z"/>
</svg>
