<?xml version="1.0" encoding="utf-8"?>
<!-- Generator: Adobe Illustrator 16.0.0, SVG Export Plug-In . SVG Version: 6.00 Build 0)  -->
<!DOCTYPE svg PUBLIC "-//W3C//DTD SVG 1.1//EN" "http://www.w3.org/Graphics/SVG/1.1/DTD/svg11.dtd">
<svg version="1.1" id="Layer_1" xmlns="http://www.w3.org/2000/svg" xmlns:xlink="http://www.w3.org/1999/xlink" x="0px" y="0px"
	 width="100px" height="75px" viewBox="0 0 100 75" enable-background="new 0 0 100 75" xml:space="preserve">
<g display="none">
	<g display="inline">
		<g>
			<path d="M35.218,44.139V8.59c0-2.44-1.978-4.418-4.418-4.418c-2.44,0-4.418,1.978-4.418,4.418v35.549
				c-1.411,1.232-2.306,3.041-2.306,5.062c0,3.714,3.011,6.724,6.724,6.724c3.713,0,6.725-3.01,6.725-6.724
				C37.524,47.18,36.629,45.372,35.218,44.139z"/>
		</g>
	</g>
	<g display="inline">
		<g>
			<circle cx="30.8" cy="49.2" r="2.454"/>
		</g>
	</g>
	<g display="inline">
		<g>
			<path d="M30.8,22.8c-0.662,0-1.2,0.538-1.2,1.2v22.2c0,0.661,0.538,1.2,1.2,1.2c0.663,0,1.2-0.539,1.2-1.2V24
				C32,23.337,31.462,22.8,30.8,22.8z"/>
		</g>
	</g>
	<g display="inline">
		<g>
			<circle cx="50.9" cy="29.7" r="15.323"/>
		</g>
	</g>
	<g display="inline">
		<g>
			<path d="M50,3c-0.663,0-1.2,0.538-1.2,1.2V9c0,0.663,0.538,1.2,1.2,1.2s1.2-0.538,1.2-1.2V4.2C51.2,3.538,50.662,3,50,3z
				 M50,49.8c-0.663,0-1.2,0.538-1.2,1.2v4.8c0,0.663,0.538,1.2,1.2,1.2s1.2-0.537,1.2-1.2V51C51.2,50.338,50.662,49.8,50,49.8z
				 M63.5,6.617c-0.574-0.332-1.309-0.135-1.639,0.439l-2.4,4.157c-0.332,0.574-0.135,1.308,0.439,1.639
				c0.574,0.332,1.308,0.135,1.639-0.438l2.4-4.158C64.271,7.683,64.074,6.949,63.5,6.617z M40.1,47.146
				c-0.574-0.332-1.308-0.136-1.639,0.438l-2.4,4.157c-0.331,0.572-0.135,1.308,0.439,1.639c0.574,0.332,1.308,0.137,1.639-0.438
				l2.4-4.157C40.871,48.213,40.674,47.479,40.1,47.146z M68.787,20.539l4.156-2.4c0.574-0.332,0.771-1.065,0.438-1.639
				s-1.065-0.771-1.639-0.439l-4.158,2.4c-0.571,0.332-0.771,1.065-0.438,1.639C67.479,20.674,68.213,20.871,68.787,20.539z
				 M75.8,28.8H71c-0.662,0-1.2,0.538-1.2,1.2s0.538,1.2,1.2,1.2h4.8c0.663,0,1.2-0.538,1.2-1.2S76.463,28.8,75.8,28.8z
				 M72.943,41.861l-4.157-2.4c-0.573-0.332-1.308-0.135-1.64,0.439s-0.136,1.308,0.438,1.639l4.157,2.4
				c0.572,0.33,1.308,0.135,1.639-0.439C73.714,42.926,73.518,42.191,72.943,41.861z M61.539,47.586
				c-0.332-0.572-1.064-0.77-1.639-0.438c-0.574,0.33-0.771,1.063-0.439,1.639l2.4,4.156c0.33,0.574,1.063,0.771,1.639,0.438
				s0.771-1.065,0.439-1.639L61.539,47.586z M38.139,7.057c-0.331-0.574-1.065-0.771-1.639-0.438
				c-0.574,0.331-0.771,1.065-0.439,1.639l2.4,4.157c0.331,0.574,1.065,0.771,1.639,0.438c0.574-0.331,0.771-1.065,0.439-1.639
				L38.139,7.057z"/>
		</g>
	</g>
</g>
<g>
	<g>
		<g>
			<path fill="#FFFFFF" d="M16.533,5.791c-2.872,0-5.46,1.209-7.289,3.143v13.777c1.828,1.934,4.417,3.145,7.289,3.145
				c5.54,0,10.031-4.493,10.031-10.032C26.564,10.282,22.073,5.791,16.533,5.791z"/>
		</g>
	</g>
	<g>
		<g>
			<path fill="#FFFFFF" d="M16,0c-0.393,0-0.711,0.318-0.711,0.711v2.844c0,0.393,0.319,0.711,0.711,0.711s0.711-0.318,0.711-0.711
				V0.711C16.711,0.318,16.393,0,16,0z M16,27.732c-0.393,0-0.711,0.318-0.711,0.711v2.846C15.289,31.682,15.608,32,16,32
				s0.711-0.318,0.711-0.711v-2.846C16.711,28.052,16.393,27.732,16,27.732z M24,2.144c-0.34-0.196-0.775-0.08-0.971,0.26
				l-1.424,2.463c-0.195,0.34-0.08,0.775,0.262,0.971c0.34,0.196,0.773,0.08,0.971-0.26l1.423-2.464
				C24.457,2.775,24.34,2.34,24,2.144z M10.133,26.161c-0.34-0.196-0.775-0.08-0.971,0.26L7.74,28.885
				C7.544,29.225,7.66,29.66,8,29.855c0.34,0.197,0.775,0.082,0.971-0.26l1.422-2.463C10.59,26.793,10.474,26.357,10.133,26.161z
				 M27.133,10.394l2.463-1.422c0.342-0.196,0.459-0.631,0.262-0.971c-0.196-0.34-0.631-0.457-0.972-0.26l-2.465,1.422
				c-0.339,0.196-0.456,0.631-0.26,0.971C26.357,10.474,26.793,10.59,27.133,10.394z M31.289,15.289h-2.846
				c-0.393,0-0.711,0.319-0.711,0.711s0.318,0.711,0.711,0.711h2.846C31.682,16.711,32,16.392,32,16S31.682,15.289,31.289,15.289z
				 M29.596,23.029l-2.463-1.422c-0.34-0.197-0.775-0.08-0.972,0.26c-0.196,0.34-0.08,0.775,0.26,0.971l2.464,1.423
				c0.34,0.196,0.775,0.079,0.971-0.261C30.053,23.66,29.938,23.225,29.596,23.029z M22.838,26.421
				c-0.195-0.339-0.631-0.456-0.971-0.259c-0.342,0.195-0.457,0.631-0.262,0.971l1.424,2.463c0.195,0.342,0.631,0.459,0.971,0.262
				c0.34-0.196,0.457-0.631,0.261-0.971L22.838,26.421z M8.971,2.404C8.775,2.064,8.34,1.947,8,2.144
				C7.66,2.34,7.543,2.775,7.74,3.115l1.422,2.463c0.196,0.34,0.631,0.457,0.971,0.26c0.34-0.196,0.457-0.631,0.26-0.971
				L8.971,2.404z"/>
		</g>
	</g>
	<g>
		<g>
			<path fill="#FFFFFF" d="M7.822,24.048V3.2c0-1.767-1.433-3.2-3.2-3.2s-3.2,1.433-3.2,3.2v20.848C0.547,24.889,0,26.068,0,27.378
				C0,29.932,2.069,32,4.622,32c2.553,0,4.623-2.068,4.623-4.622C9.245,26.068,8.697,24.889,7.822,24.048z M4.622,29.511
				c-1.178,0-2.133-0.974-2.133-2.176c0-0.946,0.594-1.75,1.422-2.05V12.103c0-0.4,0.319-0.725,0.711-0.725
				c0.393,0,0.711,0.325,0.711,0.725v13.182c0.828,0.3,1.422,1.104,1.422,2.05C6.755,28.537,5.8,29.511,4.622,29.511z"/>
		</g>
	</g>
</g>
</svg>
