<?xml version="1.0" encoding="utf-8"?>
<!-- Generator: Adobe Illustrator 16.0.0, SVG Export Plug-In . SVG Version: 6.00 Build 0)  -->
<!DOCTYPE svg PUBLIC "-//W3C//DTD SVG 1.1//EN" "http://www.w3.org/Graphics/SVG/1.1/DTD/svg11.dtd">
<svg version="1.1" id="Layer_1" xmlns="http://www.w3.org/2000/svg" xmlns:xlink="http://www.w3.org/1999/xlink" x="0px" y="0px"
	 width="100px" height="75px" viewBox="0 0 100 75" enable-background="new 0 0 100 75" xml:space="preserve">
<g display="none">
	<path display="inline" stroke="#000000" stroke-width="4" stroke-miterlimit="10" d="M74,54c-12.895,0-18-25.2-18-25.2
		c-1.804,1.206-3.608,1.8-6,1.8s-4.213-0.576-6-1.8c0,0-5.106,25.2-18,25.2"/>
	<circle display="inline" fill="none" stroke="#000000" stroke-width="4" stroke-miterlimit="10" cx="68" cy="17.4" r="2.4"/>
	<circle display="inline" fill="none" stroke="#000000" stroke-width="4" stroke-miterlimit="10" cx="66.8" cy="5.4" r="2.4"/>
	<path display="inline" fill="none" stroke="#000000" stroke-width="4" stroke-linecap="round" stroke-miterlimit="10" d="
		M53.6,25.8c0,0,0.042-7.8,8.4-7.8"/>
	<circle display="inline" fill="none" stroke="#000000" stroke-width="4" stroke-miterlimit="10" cx="29" cy="14.4" r="2.4"/>
	<path display="inline" fill="none" stroke="#000000" stroke-width="4" stroke-linecap="round" stroke-miterlimit="10" d="
		M45.8,25.8c0,0-0.053-11.4-10.8-11.4"/>
	<path display="inline" fill="none" stroke="#000000" stroke-width="4" stroke-linecap="round" stroke-miterlimit="10" d="M60.8,5.4
		c0,0-10.8,0.698-10.8,20.4"/>
</g>
<g display="none">
	<g display="inline">
		<path d="M57.176,28.562l-0.355-1.753l-1.486,0.994C53.657,28.922,52.062,29.4,50,29.4c-2.104,0-3.695-0.475-5.322-1.59
			l-1.494-1.023l-0.361,1.774C42.775,28.804,37.764,52.8,26,52.8v2.4c11.864,0,17.389-18.773,18.805-24.535
			C46.376,31.443,48.036,31.8,50,31.8c1.938,0,3.595-0.36,5.192-1.146C56.604,36.403,62.128,55.2,74,55.2v-2.4
			C62.236,52.8,57.225,28.804,57.176,28.562z"/>
		<path d="M64.4,17.4c0,1.985,1.614,3.6,3.6,3.6s3.6-1.615,3.6-3.6s-1.614-3.6-3.6-3.6S64.4,15.415,64.4,17.4z M69.2,17.4
			c0,0.662-0.538,1.2-1.2,1.2s-1.2-0.538-1.2-1.2c0-0.662,0.538-1.2,1.2-1.2S69.2,16.738,69.2,17.4z"/>
		<path d="M66.8,9C68.785,9,70.4,7.385,70.4,5.4S68.785,1.8,66.8,1.8s-3.6,1.615-3.6,3.6S64.814,9,66.8,9z M66.8,4.2
			c0.662,0,1.2,0.538,1.2,1.2c0,0.662-0.538,1.2-1.2,1.2c-0.661,0-1.2-0.538-1.2-1.2C65.6,4.738,66.139,4.2,66.8,4.2z"/>
		<path d="M52.4,25.793c-0.004,0.663,0.531,1.203,1.193,1.207c0.002,0,0.004,0,0.006,0c0.66,0,1.197-0.533,1.2-1.193
			c0.001-0.27,0.116-6.606,7.2-6.606c0.662,0,1.2-0.538,1.2-1.2s-0.538-1.2-1.2-1.2C52.557,16.8,52.4,25.704,52.4,25.793z"/>
		<path d="M29,18c1.985,0,3.6-1.615,3.6-3.6s-1.615-3.6-3.6-3.6s-3.6,1.615-3.6,3.6S27.015,18,29,18z M29,13.2
			c0.662,0,1.2,0.538,1.2,1.2c0,0.662-0.539,1.2-1.2,1.2s-1.2-0.538-1.2-1.2C27.8,13.738,28.338,13.2,29,13.2z"/>
		<path d="M35,15.6c9.393,0,9.596,9.77,9.6,10.207C44.604,26.467,45.14,27,45.8,27c0.002,0,0.004,0,0.005,0
			c0.663-0.003,1.198-0.543,1.195-1.206C46.979,21.438,44.445,13.2,35,13.2c-0.663,0-1.2,0.538-1.2,1.2
			C33.8,15.062,34.337,15.6,35,15.6z"/>
		<path d="M50,27c0.662,0,1.2-0.538,1.2-1.2c0-18.19,9.272-19.169,9.686-19.203c0.657-0.047,1.154-0.616,1.112-1.274
			c-0.043-0.662-0.616-1.16-1.275-1.121C60.236,4.234,48.8,5.21,48.8,25.8C48.8,26.462,49.337,27,50,27z"/>
	</g>
</g>
<g>
	<g>
		<path fill="#FFFFFF" d="M29.025,28.207c-6.663,0-9.502-13.591-9.529-13.728l-0.201-0.993l-0.842,0.562
			c-0.95,0.634-1.854,0.905-3.021,0.905c-1.191,0-2.093-0.269-3.014-0.9l-0.847-0.58l-0.204,1.005
			C11.339,14.616,8.5,28.207,1.837,28.207H0l4.188,3.59l1.49-1.117l3.202,1.281l3.393-0.377l1.848-1.232l2.556,1.279l2.726-0.391
			l1.425-0.855l1.082,0.812L24.319,32l1.359-0.68l1.118,0.373l4.066-3.486H29.025z"/>
		<circle fill="#FFFFFF" cx="25.626" cy="8.156" r="1.359"/>
		<circle fill="#FFFFFF" cx="24.947" cy="1.359" r="1.359"/>
		<path fill="#FFFFFF" d="M16.791,12.911c-0.002,0.375,0.301,0.681,0.676,0.683c0.002,0,0.003,0,0.004,0
			c0.374,0,0.678-0.302,0.68-0.676c0-0.153,0.065-3.742,4.078-3.742c0.375,0,0.68-0.304,0.68-0.68c0-0.375-0.305-0.68-0.68-0.68
			C16.879,7.816,16.791,12.86,16.791,12.911z"/>
		<circle fill="#FFFFFF" cx="3.537" cy="6.457" r="1.359"/>
		<path fill="#FFFFFF" d="M6.935,7.137c5.32,0,5.435,5.534,5.438,5.781c0.002,0.374,0.306,0.676,0.68,0.676c0.001,0,0.002,0,0.003,0
			c0.375-0.001,0.678-0.308,0.677-0.683c-0.012-2.467-1.447-7.133-6.797-7.133c-0.375,0-0.68,0.305-0.68,0.68
			C6.255,6.833,6.56,7.137,6.935,7.137z"/>
		<path fill="#FFFFFF" d="M15.431,13.594c0.375,0,0.68-0.304,0.68-0.68c0-10.303,5.252-10.857,5.486-10.876
			c0.372-0.027,0.653-0.349,0.63-0.722c-0.024-0.375-0.349-0.656-0.723-0.634c-0.275,0.018-6.753,0.571-6.753,12.233
			C14.751,13.29,15.056,13.594,15.431,13.594z"/>
	</g>
</g>
</svg>
