<?xml version="1.0" encoding="utf-8"?>
<!-- Generator: Adobe Illustrator 16.0.0, SVG Export Plug-In . SVG Version: 6.00 Build 0)  -->
<!DOCTYPE svg PUBLIC "-//W3C//DTD SVG 1.1//EN" "http://www.w3.org/Graphics/SVG/1.1/DTD/svg11.dtd">
<svg version="1.1" id="Layer_1" xmlns="http://www.w3.org/2000/svg" xmlns:xlink="http://www.w3.org/1999/xlink" x="0px" y="0px"
	 width="100px" height="75px" viewBox="0 0 100 75" enable-background="new 0 0 100 75" xml:space="preserve">
<path fill="#FFFFFF" d="M15.659,8.312c-0.631,0-1.068-0.472-1.068-1.104c0-0.655,0.449-1.104,1.092-1.104
	c0.643,0,1.068,0.449,1.08,1.104c0,0.631-0.425,1.104-1.08,1.104H15.659z M14.992,5.497L14.724,0h1.917l-0.267,5.497H14.992z"/>
<g>
	<path fill="#FFFFFF" d="M9.932,14.654c-0.005,1.042-0.036,1.866-0.076,2.516c-1.016-0.879-2.242-2.114-3.792-3.68
		c-0.041,0.992-0.113,1.805-0.224,2.471c-0.386-0.386-0.757-0.757-1.093-1.098c-0.202-0.203-0.412-0.417-0.625-0.63
		c0.051-0.742,0.082-1.688,0.082-2.897c0-0.524,0.426-0.951,0.95-0.951h0.107c0.249,0,0.493,0.102,0.671,0.28
		c0.519,0.518,1.011,1.017,1.478,1.484C8.271,13.013,9.139,13.892,9.932,14.654z"/>
</g>
<g>
	<path fill="#FFFFFF" d="M19.092,14.654c-0.005,1.037-0.035,1.866-0.076,2.516c-0.991-0.859-2.186-2.059-3.69-3.578
		c-0.04,0.986-0.117,1.798-0.234,2.46c-0.412-0.411-0.818-0.819-1.179-1.185l-0.132-0.132c-0.133-0.132-0.265-0.269-0.402-0.402
		c0.056-0.757,0.091-1.733,0.091-2.999c0-0.387,0.229-0.732,0.584-0.88c0.356-0.148,0.763-0.065,1.037,0.209
		c0.519,0.517,1.012,1.016,1.479,1.483C17.43,13.013,18.3,13.892,19.092,14.654z"/>
</g>
<g>
	<path fill="#FFFFFF" d="M31.994,17.917c-0.062,0.519-0.524,0.895-1.054,0.834c-1.489-0.168-3.264-1.942-6.456-5.16
		c-0.045,0.986-0.121,1.794-0.237,2.455c-0.402-0.402-0.804-0.803-1.185-1.189l-0.447-0.453c-0.026-0.025-0.046-0.046-0.071-0.071
		c0.05-0.758,0.086-1.734,0.086-2.999c0-0.387,0.229-0.733,0.584-0.88c0.356-0.148,0.763-0.065,1.037,0.209
		c0.52,0.518,1.012,1.017,1.479,1.484c2.455,2.48,4.579,4.62,5.423,4.718C31.678,16.927,32.055,17.395,31.994,17.917z"/>
</g>
<path fill="#FFFFFF" d="M28.964,20.982c-0.015,0.122-0.052,0.234-0.103,0.336c-0.04,0.077-0.091,0.147-0.151,0.208
	c-0.016,0.021-0.036,0.036-0.057,0.057c-0.04,0.035-0.086,0.071-0.132,0.101c-0.061,0.041-0.132,0.071-0.203,0.091
	c-0.127,0.041-0.264,0.056-0.406,0.041c-1.199-0.137-2.583-1.311-4.743-3.446c-0.523-0.514-1.094-1.084-1.713-1.713
	c-0.03,0.768-0.086,1.433-0.163,1.997c-0.249,1.826-0.746,2.689-1.601,3.04c-0.233,0.097-0.478,0.148-0.727,0.148
	c-0.758,0-1.582-0.453-2.639-1.322c-0.67-0.55-1.428-1.271-2.317-2.15c-0.523-0.513-1.088-1.089-1.713-1.713
	c-0.031,0.767-0.086,1.433-0.163,1.997c-0.249,1.825-0.747,2.689-1.601,3.04c-0.239,0.096-0.478,0.147-0.727,0.147
	c-0.62,0-1.287-0.306-2.094-0.895c-0.183-0.138-0.376-0.29-0.58-0.453c-0.671-0.559-1.433-1.285-2.333-2.176
	c-0.178-0.172-0.36-0.356-0.549-0.543c-0.097-0.097-0.193-0.192-0.29-0.291c-0.168-0.172-0.341-0.345-0.524-0.528
	c-0.127-0.132-0.259-0.264-0.396-0.401c-0.132,3.227-0.61,4.59-1.683,5.098c-0.131,0.066-0.27,0.097-0.407,0.097
	c-0.355,0-0.697-0.198-0.859-0.538c-0.224-0.474-0.025-1.037,0.437-1.266c0.199-0.159,0.646-1.012,0.646-5.546
	c0-0.524,0.427-0.951,0.95-0.951h0.107c0.249,0,0.493,0.101,0.671,0.279c0.402,0.402,0.793,0.793,1.164,1.169
	c0.106,0.107,0.213,0.214,0.315,0.315c0.447,0.453,0.894,0.904,1.337,1.348c1.831,1.819,3.487,3.375,4.087,3.375
	c0.01,0,0.021,0,0.031-0.005c0.107-0.092,0.361-0.534,0.503-2.359c0.051-0.63,0.086-1.428,0.097-2.439
	c0.004-0.235,0.004-0.478,0.004-0.732c0-0.387,0.234-0.732,0.585-0.88c0.117-0.046,0.238-0.071,0.361-0.071h0.005
	c0.244,0,0.488,0.096,0.671,0.279c0.436,0.438,0.858,0.865,1.26,1.267c0.076,0.075,0.147,0.146,0.218,0.218
	c0.478,0.483,0.957,0.966,1.424,1.434c1.794,1.779,3.411,3.289,4.001,3.289c0.01,0,0.021,0,0.03-0.005
	c0.106-0.092,0.36-0.534,0.503-2.359c0.051-0.63,0.087-1.428,0.098-2.439c0.005-0.235,0.005-0.478,0.005-0.732
	c0-0.387,0.233-0.732,0.584-0.88c0.117-0.046,0.244-0.071,0.366-0.071c0.244,0,0.487,0.096,0.671,0.279
	c0.438,0.438,0.859,0.865,1.26,1.267c0.077,0.075,0.148,0.146,0.22,0.218c0.493,0.493,0.966,0.976,1.423,1.428
	c1.835,1.825,3.329,3.213,4.005,3.289C28.648,19.992,29.025,20.459,28.964,20.982z"/>
</svg>
