<?xml version="1.0" encoding="utf-8"?>
<!-- Generator: Adobe Illustrator 16.0.0, SVG Export Plug-In . SVG Version: 6.00 Build 0)  -->
<!DOCTYPE svg PUBLIC "-//W3C//DTD SVG 1.1//EN" "http://www.w3.org/Graphics/SVG/1.1/DTD/svg11.dtd">
<svg version="1.1" id="Layer_1" xmlns="http://www.w3.org/2000/svg" xmlns:xlink="http://www.w3.org/1999/xlink" x="0px" y="0px"
	 width="100px" height="75px" viewBox="0 0 100 75" enable-background="new 0 0 100 75" xml:space="preserve">
<g id="XMLID_1_" display="none">
	<rect x="20.33" y="0.33" display="inline" fill="none" stroke="#000000" width="59.34" height="59.34"/>
</g>
<g id="XMLID_2_">
	<path fill="#FFFFFF" d="M16.422,4.175c0.041-0.018,0.082-0.037,0.122-0.053h-0.122V4.175z"/>
	<path fill="#FFFFFF" d="M3.201,21.426c-0.316-0.996-0.832-0.996-1.147,0l-1.962,6.2c-0.315,0.995,0.21,1.811,1.17,1.811h1.047
		v2.638h0.637v-2.638h1.046c0.96,0,1.486-0.816,1.17-1.811L3.201,21.426z"/>
	<path fill="#FFFFFF" d="M6.754,27.626c-0.314,0.995,0.212,1.811,1.17,1.811H8.97v2.639h0.637v-2.639h1.046
		c0.96,0,1.486-0.815,1.171-1.811L11.3,25.97c-1.107-0.513-2.106-1.162-3.286-2.328L6.754,27.626z"/>
	<path fill="#FFFFFF" d="M13.687,26.777l-0.269,0.849c-0.315,0.995,0.211,1.811,1.17,1.811h1.048v2.639h0.636v-2.639h1.04
		c0.959,0,1.485-0.815,1.17-1.811l-0.278-0.884c-0.188,0.038-0.379,0.073-0.571,0.101C16.21,27.051,14.906,27.026,13.687,26.777z"/>
	<path fill="#FFFFFF" d="M22.928,32.075v-2.638h1.046c0.961,0,1.487-0.816,1.171-1.811l-1.254-3.963
		c-0.95,0.972-2.062,1.751-3.294,2.309l-0.523,1.654c-0.315,0.995,0.211,1.811,1.17,1.811h1.048v2.638"/>
	<path fill="#FFFFFF" d="M29.854,21.426c-0.315-0.996-0.831-0.996-1.146,0l-1.962,6.2c-0.316,0.995,0.211,1.811,1.17,1.811h1.046
		v2.639H29.6v-2.639h1.046c0.96,0,1.485-0.815,1.17-1.811L29.854,21.426z"/>
	<path fill="#FFFFFF" d="M4.234,19.072c-0.251,0.794,0.168,1.445,0.934,1.445h0.61c-0.447-0.994-0.789-2.16-0.916-3.425
		L4.234,19.072z"/>
	<path fill="#FFFFFF" d="M5.937,22.876c0,0.194,0.143,0.351,0.319,0.351c0.176,0,0.318-0.157,0.318-0.351v-0.911
		c-0.223-0.334-0.438-0.706-0.637-1.109V22.876L5.937,22.876z"/>
	<path fill="#FFFFFF" d="M28.054,19.072l-0.915-2.886c-0.035,1.561-0.441,3.123-1.231,4.667c-0.062,0.121-0.129,0.237-0.194,0.355
		v1.668c0,0.194,0.143,0.351,0.318,0.351c0.175,0,0.319-0.157,0.319-0.351v-2.359h0.77C27.886,20.517,28.306,19.866,28.054,19.072z"
		/>
	<path fill="#FFFFFF" d="M28.411,14.081h0.552v1.888c0,0.194,0.142,0.351,0.318,0.351c0.176,0,0.319-0.157,0.319-0.351v-1.888h0.552
		c0.611,0,0.946-0.521,0.744-1.155l-1.249-3.953c-0.201-0.636-0.531-0.636-0.732,0l-1.251,3.953
		C27.463,13.56,27.798,14.081,28.411,14.081z"/>
	<path fill="#FFFFFF" d="M2.262,8.972L1.01,12.925c-0.201,0.635,0.135,1.156,0.747,1.156h0.552v1.887
		c0,0.194,0.143,0.351,0.318,0.351c0.176,0,0.318-0.157,0.318-0.351v-1.887h0.552c0.611,0,0.947-0.521,0.746-1.156L2.992,8.972
		C2.792,8.336,2.462,8.336,2.262,8.972z"/>
	<path fill="#FFFFFF" d="M2.285,4.122h0.324v1.393c0,0.194,0.142,0.351,0.318,0.351c0.176,0,0.318-0.157,0.318-0.351V4.122h0.324
		c0.451,0,0.699-0.384,0.55-0.853L3.197,0.352c-0.149-0.469-0.392-0.469-0.54,0L1.732,3.27C1.585,3.738,1.833,4.122,2.285,4.122z"/>
	<path fill="#FFFFFF" d="M26.032,11.025c0.212,0,0.384-0.189,0.384-0.423V8.921h0.391c0.546,0,0.844-0.463,0.664-1.028l-1.112-3.52
		c-0.18-0.566-0.473-0.566-0.652,0l-1.113,3.52c-0.179,0.566,0.12,1.028,0.665,1.028h0.39v1.681c0.067,0.12,0.133,0.241,0.196,0.361
		C25.9,10.999,25.963,11.025,26.032,11.025z"/>
	<path fill="#FFFFFF" d="M13.175,4.333c-0.18-0.565-0.474-0.565-0.652,0L12.116,5.62l1.317-0.47L13.175,4.333z"/>
	<path fill="#FFFFFF" d="M6.64,8.882h0.391c0.545,0,0.844-0.463,0.664-1.028l-1.112-3.52c-0.18-0.565-0.473-0.565-0.652,0
		l-1.114,3.52c-0.179,0.565,0.12,1.028,0.665,1.028h0.39v1.681c0,0.187,0.113,0.34,0.266,0.396c0.165-0.307,0.332-0.6,0.503-0.872
		L6.64,8.882L6.64,8.882z"/>
	<path fill="#FFFFFF" d="M8.873,4.122h0.324v1.393c0,0.194,0.142,0.351,0.318,0.351c0.176,0,0.318-0.157,0.318-0.351V4.122h0.324
		c0.451,0,0.698-0.384,0.55-0.853L9.786,0.352c-0.149-0.469-0.393-0.469-0.54,0L8.321,3.27C8.173,3.738,8.421,4.122,8.873,4.122z"/>
	<path fill="#FFFFFF" d="M16.422,4.122h0.122c0.231-0.094,0.458-0.167,0.681-0.225c0.115-0.156,0.15-0.379,0.071-0.627l-0.921-2.918
		c-0.149-0.469-0.393-0.469-0.54,0L14.91,3.27c-0.148,0.469,0.101,0.853,0.551,0.853h0.325v0.381
		c0.213-0.127,0.425-0.236,0.636-0.328V4.122z"/>
	<path fill="#FFFFFF" d="M22.051,4.122h0.324v1.393c0,0.194,0.142,0.351,0.317,0.351c0.177,0,0.319-0.157,0.319-0.351V4.122h0.323
		c0.452,0,0.699-0.384,0.55-0.853l-0.921-2.917c-0.15-0.469-0.393-0.469-0.541,0L21.499,3.27C21.352,3.738,21.6,4.122,22.051,4.122z
		"/>
	<path fill="#FFFFFF" d="M28.64,4.122h0.323v1.393c0,0.194,0.142,0.351,0.318,0.351c0.176,0,0.318-0.157,0.318-0.351V4.122h0.324
		c0.451,0,0.699-0.384,0.55-0.853l-0.921-2.917c-0.15-0.469-0.394-0.469-0.541,0L28.088,3.27C27.939,3.738,28.188,4.122,28.64,4.122
		z"/>
	<path fill="#FFFFFF" d="M0.323,22.876v-2.359h0.77c0.765,0,1.186-0.651,0.934-1.445l-1.564-4.935
		c-0.125-0.397-0.291-0.596-0.457-0.596l-0.001,9.687C0.18,23.228,0.323,23.071,0.323,22.876z"/>
	<path fill="#FFFFFF" d="M0.388,10.562v-1.68h0.391c0.544,0,0.843-0.463,0.664-1.029l-1.112-3.52
		C0.257,4.103,0.13,3.967,0.035,3.924l-0.031,7.062C0.216,10.985,0.388,10.796,0.388,10.562z"/>
	<path fill="#FFFFFF" d="M31.543,14.137l-1.565,4.935c-0.252,0.794,0.169,1.446,0.934,1.446h0.771v2.359
		c0,0.194,0.143,0.351,0.318,0.351L32,13.541C31.834,13.541,31.668,13.739,31.543,14.137z"/>
	<path fill="#FFFFFF" d="M31.226,8.921h0.391v1.681c0,0.233,0.172,0.423,0.384,0.423l-0.03-7.062
		c-0.096,0.043-0.223,0.18-0.296,0.41l-1.112,3.52C30.382,8.458,30.681,8.921,31.226,8.921z"/>
	<path fill="#FFFFFF" d="M24.409,20.232c2.115-4.132,0.815-7.924-2.067-11.126c-0.098,0.832-0.659,2.718-1.906,2.894
		c-3.124,0.442-3.576-4.131-1.397-6.203c0,0-2.604-0.731-4.4,2.458c-1.32,2.346-1.071,4.673-3.018,4.462
		c-1.22-0.133-2.106-2.244,0.178-4.92c0,0-2.43,0.867-4.252,4.562c-2.02,4.099-0.246,8.014,1.111,9.51
		c1.66,1.83,2.806,2.434,4.09,2.954c0.869,0.352,2.383,0.795,4.699,0.456C20.408,24.847,22.957,23.073,24.409,20.232z
		 M16.913,24.182c-3.653,0.391-6.78-2.601-5.081-6.546c0.759-1.763,2.574-2.541,2.574-2.541c-1.204,1.435-0.957,2.543-0.327,2.586
		c1.046,0.073,0.978-1.102,1.705-2.562c0.87-1.746,1.785-1.783,1.785-1.783c-0.473,1.388,0.193,2.637,1.443,3.711
		C22.299,19.749,19.95,23.855,16.913,24.182z"/>
</g>
</svg>
